<?xml version="1.0" encoding="UTF-8" standalone="no"?>
<svg width="346px" height="40px" viewBox="0 0 346 40" version="1.1" xmlns="http://www.w3.org/2000/svg" xmlns:xlink="http://www.w3.org/1999/xlink" xmlns:sketch="http://www.bohemiancoding.com/sketch/ns">
    <!-- Generator: Sketch 3.3.3 (12081) - http://www.bohemiancoding.com/sketch -->
    <title>logo@svg</title>
    <desc>Created with Sketch.</desc>
    <defs></defs>
    <g id="Page-1" stroke="none" stroke-width="1" fill="none" fill-rule="evenodd" sketch:type="MSPage">
        <g id="ROMENSKI-Главная" sketch:type="MSArtboardGroup" transform="translate(-238.000000, -60.000000)" fill="#787878">
            <g id="logo" sketch:type="MSLayerGroup" transform="translate(238.000000, 60.000000)">
                <path d="M117.865507,17.3669565 L117.865507,15.2394203 L109.813913,15.2394203 L109.813913,11.7246377 L118.04,11.7246377 L118.04,8.60869565 L106.274203,8.60869565 L106.274203,25.2347826 L109.997101,25.2347826 L101.590145,33.6417391 L101.795362,33.8469565 L135.390725,0.251594203 L135.185507,0.0469565217 L117.865507,17.3669565 L117.865507,17.3669565 Z M113.113043,22.1188406 L109.813913,22.1188406 L109.813913,18.3553623 L116.877101,18.3553623 L113.113043,22.1188406 L113.113043,22.1188406 Z" id="Fill-1" sketch:type="MSShapeGroup"></path>
                <path d="M71.2765217,11.7246377 L76.1373913,11.7246377 L76.1373913,25.2347826 L79.702029,25.2347826 L79.702029,11.7246377 L84.537971,11.7246377 L84.537971,8.60869565 L71.2765217,8.60869565 L71.2765217,11.7246377" id="Fill-2" sketch:type="MSShapeGroup"></path>
                <path d="M9.00753623,11.4747826 C10.7275362,11.4747826 12.2231884,12.5466667 12.9211594,13.8927536 L15.9623188,12.3971014 C14.7907246,10.3281159 12.6718841,8.33449275 9.00753623,8.33449275 C4.0226087,8.33449275 0.15826087,11.8237681 0.15826087,16.933913 C0.15826087,22.044058 4.0226087,25.533913 9.00753623,25.533913 C12.6718841,25.533913 14.7657971,23.5147826 15.9623188,21.4457971 L12.9211594,19.9750725 C12.2231884,21.346087 10.7275362,22.3930435 9.00753623,22.3930435 C5.99130435,22.3930435 3.79768116,20.0747826 3.79768116,16.933913 C3.79768116,13.7930435 5.99130435,11.4747826 9.00753623,11.4747826" id="Fill-3" sketch:type="MSShapeGroup"></path>
                <path d="M192.672464,27.0324638 L187.421449,14.2973913 L184.402319,14.2973913 L184.402319,31.2185507 L186.507826,31.2185507 L186.507826,17.2910145 L192.241159,31.2185507 L193.103768,31.2185507 L198.862609,17.2910145 L198.862609,31.2185507 L200.968116,31.2185507 L200.968116,14.2973913 L197.949565,14.2973913 L192.672464,27.0324638" id="Fill-4" sketch:type="MSShapeGroup"></path>
                <path d="M220.151304,31.2185507 L231.238261,31.2185507 L231.238261,29.3414493 L222.257971,29.3414493 L222.257971,23.5066667 L231.06029,23.5066667 L231.06029,21.6289855 L222.257971,21.6289855 L222.257971,16.1750725 L231.238261,16.1750725 L231.238261,14.2973913 L220.151304,14.2973913 L220.151304,31.2185507" id="Fill-5" sketch:type="MSShapeGroup"></path>
                <path d="M261.708986,27.5147826 L251.967536,14.2973913 L249.811594,14.2973913 L249.811594,31.2185507 L251.917101,31.2185507 L251.917101,17.7223188 L261.785507,31.2185507 L263.815072,31.2185507 L263.815072,14.2973913 L261.708986,14.2973913 L261.708986,27.5147826" id="Fill-6" sketch:type="MSShapeGroup"></path>
                <path d="M284.697971,18.6104348 C284.697971,17.0121739 286.144348,15.9211594 288.173913,15.9211594 C290.026087,15.9211594 291.801739,16.5553623 293.069565,17.9507246 L294.338551,16.4028986 C292.918261,14.9066667 290.913623,14.0434783 288.325797,14.0434783 C285.002899,14.0434783 282.516522,15.9466667 282.516522,18.7368116 C282.516522,24.7750725 292.536812,22.3646377 292.536812,26.7286957 C292.536812,28.022029 291.573333,29.6457971 288.554203,29.6457971 C286.169855,29.6457971 284.343188,28.4788406 283.227246,27.235942 L281.983768,28.8336232 C283.378551,30.4069565 285.535652,31.5234783 288.478261,31.5234783 C293.044638,31.5234783 294.718841,29.0115942 294.718841,26.5507246 C294.718841,20.2342029 284.697971,22.4156522 284.697971,18.6104348" id="Fill-7" sketch:type="MSShapeGroup"></path>
                <path d="M325.317681,14.2973913 L322.678841,14.2973913 L315.195942,23.0498551 L315.195942,14.2973913 L313.089855,14.2973913 L313.089855,31.2185507 L315.195942,31.2185507 L315.195942,25.5362319 L316.895072,23.6081159 L323.313623,31.2185507 L325.925797,31.2185507 L318.265507,22.3397101 L325.317681,14.2973913" id="Fill-8" sketch:type="MSShapeGroup"></path>
                <path d="M343.562319,14.2973913 L345.667246,14.2973913 L345.667246,31.2185507 L343.562319,31.2185507 L343.562319,14.2973913 Z" id="Fill-9" sketch:type="MSShapeGroup"></path>
                <path d="M135.185507,5.87072464 L101.590145,39.466087 L101.795362,39.6713043 L119.11942,22.3466667 L119.11942,31.2185507 L121.225507,31.2185507 L121.225507,24.4962319 L124.59942,24.4962319 L128.912464,31.2185507 L131.398261,31.2185507 L126.831884,24.3182609 C129.14029,24.1153623 131.22087,22.4411594 131.22087,19.3965217 C131.22087,16.6794203 129.544348,14.8313043 127.067826,14.3988406 L135.390725,6.07536232 L135.185507,5.87072464 L135.185507,5.87072464 Z M129.038841,19.3965217 C129.038841,21.2997101 127.668986,22.644058 125.664928,22.644058 L121.225507,22.644058 L121.225507,20.2411594 L125.291594,16.1750725 L125.664928,16.1750725 C127.668986,16.1750725 129.038841,17.493913 129.038841,19.3965217 L129.038841,19.3965217 Z" id="Fill-10" sketch:type="MSShapeGroup"></path>
                <path d="M165.878261,22.7710145 C165.878261,27.7686957 162.478841,31.5234783 157.481159,31.5234783 C152.457971,31.5234783 149.084058,27.7686957 149.084058,22.7710145 C149.084058,17.7733333 152.457971,14.0185507 157.481159,14.0185507 C162.478841,14.0185507 165.878261,17.7733333 165.878261,22.7710145 L165.878261,22.7710145 Z M157.481159,16.7286957 C154.013333,16.7286957 151.684058,19.3205797 151.684058,22.7710145 C151.684058,26.2208696 154.013333,28.8133333 157.481159,28.8133333 C160.931594,28.8133333 163.278261,26.2208696 163.278261,22.7710145 C163.278261,19.3205797 160.931594,16.7286957 157.481159,16.7286957 L157.481159,16.7286957 Z" id="Fill-11" sketch:type="MSShapeGroup"></path>
                <path d="M42.0492754,8.60869565 L35.617971,25.2347826 L39.6562319,25.2347826 L40.7026087,22.417971 L47.8318841,22.417971 L48.853913,25.2347826 L52.8921739,25.2347826 L46.4863768,8.60869565 L42.0492754,8.60869565 L42.0492754,8.60869565 Z M41.6753623,19.302029 L44.2672464,12.1484058 L46.8597101,19.302029 L41.6753623,19.302029 L41.6753623,19.302029 Z" id="Fill-12" sketch:type="MSShapeGroup"></path>
            </g>
        </g>
    </g>
</svg>