<?xml version="1.0" encoding="UTF-8" standalone="no"?>
<svg width="18px" height="11px" viewBox="0 0 18 11" version="1.1" xmlns="http://www.w3.org/2000/svg" xmlns:xlink="http://www.w3.org/1999/xlink" xmlns:sketch="http://www.bohemiancoding.com/sketch/ns">
    <!-- Generator: Sketch 3.3.3 (12081) - http://www.bohemiancoding.com/sketch -->
    <title>vk@svg</title>
    <desc>Created with Sketch.</desc>
    <defs></defs>
    <g id="Page-1" stroke="none" stroke-width="1" fill="none" fill-rule="evenodd" sketch:type="MSPage">
        <g id="ROMENSKI-Главная-(выпадающее-меню-при-наведении)" sketch:type="MSArtboardGroup" transform="translate(-850.000000, -951.000000)" fill="#9B9B9B">
            <g id="social" sketch:type="MSLayerGroup" transform="translate(850.000000, 950.000000)">
                <path d="M15.387,8.389 C16.723,9.68 17,10.309 17.046,10.387 C17.599,11.341 16.432,11.417 16.432,11.417 L14.2,11.449 C14.2,11.449 13.72,11.548 13.088,11.096 C12.254,10.501 11.466,8.95 10.853,9.153 C10.231,9.358 10.25,10.753 10.25,10.753 C10.25,10.753 10.255,11.051 10.113,11.209 C9.96,11.382 9.658,11.417 9.658,11.417 L8.658,11.417 C8.658,11.417 6.455,11.555 4.513,9.452 C2.396,7.158 0.525,2.607 0.525,2.607 C0.525,2.607 0.419,2.308 0.536,2.164 C0.667,2.002 1.026,1.991 1.026,1.991 L3.415,1.975 C3.415,1.975 3.639,2.014 3.8,2.137 C3.932,2.239 4.007,2.428 4.007,2.428 C4.007,2.428 4.393,3.444 4.904,4.363 C5.902,6.157 6.367,6.55 6.705,6.357 C7.199,6.077 7.051,3.821 7.051,3.821 C7.051,3.821 7.06,3.003 6.803,2.638 C6.603,2.356 6.227,2.274 6.061,2.25 C5.926,2.231 6.147,1.907 6.432,1.761 C6.862,1.542 7.622,1.53 8.518,1.539 C9.217,1.547 9.418,1.592 9.691,1.661 C10.514,1.868 10.236,2.666 10.236,4.583 C10.236,5.197 10.129,6.059 10.554,6.346 C10.738,6.469 11.185,6.364 12.304,4.387 C12.835,3.45 13.232,2.348 13.232,2.348 C13.232,2.348 13.318,2.151 13.453,2.067 C13.591,1.982 13.778,2.008 13.778,2.008 L16.292,1.991 C16.292,1.991 17.046,1.898 17.168,2.252 C17.297,2.625 16.887,3.494 15.861,4.918 C14.174,7.256 13.987,7.037 15.387,8.389" id="vk" sketch:type="MSShapeGroup"></path>
            </g>
        </g>
    </g>
</svg>